<mxfile host="app.diagrams.net" modified="2022-06-22T02:09:04.800Z" agent="5.0 (Windows NT 10.0; Win64; x64) AppleWebKit/537.36 (KHTML, like Gecko) Chrome/101.0.4951.67 Safari/537.36 OPR/87.0.4390.58 (Edition std-1)" etag="M8TzKyoypqcuz4SSsrIY" version="20.0.1" type="github">
  <diagram id="Rz-p_ILEkP1utkvd-OHR" name="Page-1">
    <mxGraphModel dx="827" dy="1621" grid="1" gridSize="10" guides="1" tooltips="1" connect="1" arrows="1" fold="1" page="1" pageScale="1" pageWidth="827" pageHeight="1169" math="0" shadow="0">
      <root>
        <mxCell id="0" />
        <mxCell id="1" parent="0" />
        <mxCell id="CvcMk5rBtzCA7vQeE_0O-38" style="edgeStyle=orthogonalEdgeStyle;rounded=0;orthogonalLoop=1;jettySize=auto;html=1;entryX=0.5;entryY=0;entryDx=0;entryDy=0;" edge="1" parent="1" source="CvcMk5rBtzCA7vQeE_0O-1" target="CvcMk5rBtzCA7vQeE_0O-8">
          <mxGeometry relative="1" as="geometry" />
        </mxCell>
        <mxCell id="CvcMk5rBtzCA7vQeE_0O-39" style="edgeStyle=orthogonalEdgeStyle;rounded=0;orthogonalLoop=1;jettySize=auto;html=1;entryX=0;entryY=0.25;entryDx=0;entryDy=0;" edge="1" parent="1" source="CvcMk5rBtzCA7vQeE_0O-1" target="CvcMk5rBtzCA7vQeE_0O-12">
          <mxGeometry relative="1" as="geometry" />
        </mxCell>
        <mxCell id="CvcMk5rBtzCA7vQeE_0O-40" style="edgeStyle=orthogonalEdgeStyle;rounded=0;orthogonalLoop=1;jettySize=auto;html=1;entryX=-0.007;entryY=0.189;entryDx=0;entryDy=0;entryPerimeter=0;" edge="1" parent="1" source="CvcMk5rBtzCA7vQeE_0O-1" target="CvcMk5rBtzCA7vQeE_0O-15">
          <mxGeometry relative="1" as="geometry" />
        </mxCell>
        <mxCell id="CvcMk5rBtzCA7vQeE_0O-1" value="Perro" style="swimlane;fontStyle=0;childLayout=stackLayout;horizontal=1;startSize=30;horizontalStack=0;resizeParent=1;resizeParentMax=0;resizeLast=0;collapsible=1;marginBottom=0;" vertex="1" parent="1">
          <mxGeometry x="140" y="170" width="140" height="210" as="geometry" />
        </mxCell>
        <mxCell id="CvcMk5rBtzCA7vQeE_0O-2" value="Id_perro" style="text;strokeColor=none;fillColor=none;align=left;verticalAlign=middle;spacingLeft=4;spacingRight=4;overflow=hidden;points=[[0,0.5],[1,0.5]];portConstraint=eastwest;rotatable=0;" vertex="1" parent="CvcMk5rBtzCA7vQeE_0O-1">
          <mxGeometry y="30" width="140" height="30" as="geometry" />
        </mxCell>
        <mxCell id="CvcMk5rBtzCA7vQeE_0O-3" value="Nombre" style="text;strokeColor=none;fillColor=none;align=left;verticalAlign=middle;spacingLeft=4;spacingRight=4;overflow=hidden;points=[[0,0.5],[1,0.5]];portConstraint=eastwest;rotatable=0;" vertex="1" parent="CvcMk5rBtzCA7vQeE_0O-1">
          <mxGeometry y="60" width="140" height="30" as="geometry" />
        </mxCell>
        <mxCell id="CvcMk5rBtzCA7vQeE_0O-4" value="Edad" style="text;strokeColor=none;fillColor=none;align=left;verticalAlign=middle;spacingLeft=4;spacingRight=4;overflow=hidden;points=[[0,0.5],[1,0.5]];portConstraint=eastwest;rotatable=0;" vertex="1" parent="CvcMk5rBtzCA7vQeE_0O-1">
          <mxGeometry y="90" width="140" height="30" as="geometry" />
        </mxCell>
        <mxCell id="CvcMk5rBtzCA7vQeE_0O-5" value="Raza" style="text;strokeColor=none;fillColor=none;align=left;verticalAlign=middle;spacingLeft=4;spacingRight=4;overflow=hidden;points=[[0,0.5],[1,0.5]];portConstraint=eastwest;rotatable=0;" vertex="1" parent="CvcMk5rBtzCA7vQeE_0O-1">
          <mxGeometry y="120" width="140" height="30" as="geometry" />
        </mxCell>
        <mxCell id="CvcMk5rBtzCA7vQeE_0O-6" value="Estado_Mental" style="text;strokeColor=none;fillColor=none;align=left;verticalAlign=middle;spacingLeft=4;spacingRight=4;overflow=hidden;points=[[0,0.5],[1,0.5]];portConstraint=eastwest;rotatable=0;" vertex="1" parent="CvcMk5rBtzCA7vQeE_0O-1">
          <mxGeometry y="150" width="140" height="30" as="geometry" />
        </mxCell>
        <mxCell id="CvcMk5rBtzCA7vQeE_0O-7" value="Duenio" style="text;strokeColor=none;fillColor=none;align=left;verticalAlign=middle;spacingLeft=4;spacingRight=4;overflow=hidden;points=[[0,0.5],[1,0.5]];portConstraint=eastwest;rotatable=0;" vertex="1" parent="CvcMk5rBtzCA7vQeE_0O-1">
          <mxGeometry y="180" width="140" height="30" as="geometry" />
        </mxCell>
        <mxCell id="CvcMk5rBtzCA7vQeE_0O-8" value="Raza" style="swimlane;fontStyle=0;childLayout=stackLayout;horizontal=1;startSize=30;horizontalStack=0;resizeParent=1;resizeParentMax=0;resizeLast=0;collapsible=1;marginBottom=0;" vertex="1" parent="1">
          <mxGeometry x="360" y="40" width="140" height="90" as="geometry" />
        </mxCell>
        <mxCell id="CvcMk5rBtzCA7vQeE_0O-9" value="Id_raza" style="text;strokeColor=none;fillColor=none;align=left;verticalAlign=middle;spacingLeft=4;spacingRight=4;overflow=hidden;points=[[0,0.5],[1,0.5]];portConstraint=eastwest;rotatable=0;" vertex="1" parent="CvcMk5rBtzCA7vQeE_0O-8">
          <mxGeometry y="30" width="140" height="30" as="geometry" />
        </mxCell>
        <mxCell id="CvcMk5rBtzCA7vQeE_0O-11" value="nombre_raza" style="text;strokeColor=none;fillColor=none;align=left;verticalAlign=middle;spacingLeft=4;spacingRight=4;overflow=hidden;points=[[0,0.5],[1,0.5]];portConstraint=eastwest;rotatable=0;" vertex="1" parent="CvcMk5rBtzCA7vQeE_0O-8">
          <mxGeometry y="60" width="140" height="30" as="geometry" />
        </mxCell>
        <mxCell id="CvcMk5rBtzCA7vQeE_0O-12" value="Estado_Mental" style="swimlane;fontStyle=0;childLayout=stackLayout;horizontal=1;startSize=30;horizontalStack=0;resizeParent=1;resizeParentMax=0;resizeLast=0;collapsible=1;marginBottom=0;" vertex="1" parent="1">
          <mxGeometry x="360" y="150" width="140" height="90" as="geometry" />
        </mxCell>
        <mxCell id="CvcMk5rBtzCA7vQeE_0O-13" value="Id_Estado_mental" style="text;strokeColor=none;fillColor=none;align=left;verticalAlign=middle;spacingLeft=4;spacingRight=4;overflow=hidden;points=[[0,0.5],[1,0.5]];portConstraint=eastwest;rotatable=0;" vertex="1" parent="CvcMk5rBtzCA7vQeE_0O-12">
          <mxGeometry y="30" width="140" height="30" as="geometry" />
        </mxCell>
        <mxCell id="CvcMk5rBtzCA7vQeE_0O-14" value="Nombre_estado" style="text;strokeColor=none;fillColor=none;align=left;verticalAlign=middle;spacingLeft=4;spacingRight=4;overflow=hidden;points=[[0,0.5],[1,0.5]];portConstraint=eastwest;rotatable=0;" vertex="1" parent="CvcMk5rBtzCA7vQeE_0O-12">
          <mxGeometry y="60" width="140" height="30" as="geometry" />
        </mxCell>
        <mxCell id="CvcMk5rBtzCA7vQeE_0O-45" style="edgeStyle=orthogonalEdgeStyle;rounded=0;orthogonalLoop=1;jettySize=auto;html=1;entryX=-0.029;entryY=0.156;entryDx=0;entryDy=0;entryPerimeter=0;" edge="1" parent="1" source="CvcMk5rBtzCA7vQeE_0O-15" target="CvcMk5rBtzCA7vQeE_0O-26">
          <mxGeometry relative="1" as="geometry" />
        </mxCell>
        <mxCell id="CvcMk5rBtzCA7vQeE_0O-15" value="Problemas" style="swimlane;fontStyle=0;childLayout=stackLayout;horizontal=1;startSize=30;horizontalStack=0;resizeParent=1;resizeParentMax=0;resizeLast=0;collapsible=1;marginBottom=0;" vertex="1" parent="1">
          <mxGeometry x="360" y="260" width="140" height="90" as="geometry" />
        </mxCell>
        <mxCell id="CvcMk5rBtzCA7vQeE_0O-16" value="Id_Problemas" style="text;strokeColor=none;fillColor=none;align=left;verticalAlign=middle;spacingLeft=4;spacingRight=4;overflow=hidden;points=[[0,0.5],[1,0.5]];portConstraint=eastwest;rotatable=0;" vertex="1" parent="CvcMk5rBtzCA7vQeE_0O-15">
          <mxGeometry y="30" width="140" height="30" as="geometry" />
        </mxCell>
        <mxCell id="CvcMk5rBtzCA7vQeE_0O-17" value="Nombre_Problema" style="text;strokeColor=none;fillColor=none;align=left;verticalAlign=middle;spacingLeft=4;spacingRight=4;overflow=hidden;points=[[0,0.5],[1,0.5]];portConstraint=eastwest;rotatable=0;" vertex="1" parent="CvcMk5rBtzCA7vQeE_0O-15">
          <mxGeometry y="60" width="140" height="30" as="geometry" />
        </mxCell>
        <mxCell id="CvcMk5rBtzCA7vQeE_0O-44" style="edgeStyle=orthogonalEdgeStyle;rounded=0;orthogonalLoop=1;jettySize=auto;html=1;entryX=-0.007;entryY=0.189;entryDx=0;entryDy=0;entryPerimeter=0;" edge="1" parent="1" source="CvcMk5rBtzCA7vQeE_0O-19" target="CvcMk5rBtzCA7vQeE_0O-23">
          <mxGeometry relative="1" as="geometry" />
        </mxCell>
        <mxCell id="CvcMk5rBtzCA7vQeE_0O-19" value="Duenio" style="swimlane;fontStyle=0;childLayout=stackLayout;horizontal=1;startSize=30;horizontalStack=0;resizeParent=1;resizeParentMax=0;resizeLast=0;collapsible=1;marginBottom=0;" vertex="1" parent="1">
          <mxGeometry x="540" y="40" width="140" height="90" as="geometry" />
        </mxCell>
        <mxCell id="CvcMk5rBtzCA7vQeE_0O-20" value="Id_duenio" style="text;strokeColor=none;fillColor=none;align=left;verticalAlign=middle;spacingLeft=4;spacingRight=4;overflow=hidden;points=[[0,0.5],[1,0.5]];portConstraint=eastwest;rotatable=0;" vertex="1" parent="CvcMk5rBtzCA7vQeE_0O-19">
          <mxGeometry y="30" width="140" height="30" as="geometry" />
        </mxCell>
        <mxCell id="CvcMk5rBtzCA7vQeE_0O-21" value="Nombre_duenio" style="text;strokeColor=none;fillColor=none;align=left;verticalAlign=middle;spacingLeft=4;spacingRight=4;overflow=hidden;points=[[0,0.5],[1,0.5]];portConstraint=eastwest;rotatable=0;" vertex="1" parent="CvcMk5rBtzCA7vQeE_0O-19">
          <mxGeometry y="60" width="140" height="30" as="geometry" />
        </mxCell>
        <mxCell id="CvcMk5rBtzCA7vQeE_0O-23" value="Profesion" style="swimlane;fontStyle=0;childLayout=stackLayout;horizontal=1;startSize=30;horizontalStack=0;resizeParent=1;resizeParentMax=0;resizeLast=0;collapsible=1;marginBottom=0;" vertex="1" parent="1">
          <mxGeometry x="710" y="40" width="140" height="90" as="geometry" />
        </mxCell>
        <mxCell id="CvcMk5rBtzCA7vQeE_0O-24" value="Id_profesion" style="text;strokeColor=none;fillColor=none;align=left;verticalAlign=middle;spacingLeft=4;spacingRight=4;overflow=hidden;points=[[0,0.5],[1,0.5]];portConstraint=eastwest;rotatable=0;" vertex="1" parent="CvcMk5rBtzCA7vQeE_0O-23">
          <mxGeometry y="30" width="140" height="30" as="geometry" />
        </mxCell>
        <mxCell id="CvcMk5rBtzCA7vQeE_0O-25" value="Nombre_profesion" style="text;strokeColor=none;fillColor=none;align=left;verticalAlign=middle;spacingLeft=4;spacingRight=4;overflow=hidden;points=[[0,0.5],[1,0.5]];portConstraint=eastwest;rotatable=0;" vertex="1" parent="CvcMk5rBtzCA7vQeE_0O-23">
          <mxGeometry y="60" width="140" height="30" as="geometry" />
        </mxCell>
        <mxCell id="CvcMk5rBtzCA7vQeE_0O-26" value="Tratamiento" style="swimlane;fontStyle=0;childLayout=stackLayout;horizontal=1;startSize=30;horizontalStack=0;resizeParent=1;resizeParentMax=0;resizeLast=0;collapsible=1;marginBottom=0;" vertex="1" parent="1">
          <mxGeometry x="540" y="260" width="140" height="90" as="geometry" />
        </mxCell>
        <mxCell id="CvcMk5rBtzCA7vQeE_0O-27" value="Id_tratamiento" style="text;strokeColor=none;fillColor=none;align=left;verticalAlign=middle;spacingLeft=4;spacingRight=4;overflow=hidden;points=[[0,0.5],[1,0.5]];portConstraint=eastwest;rotatable=0;" vertex="1" parent="CvcMk5rBtzCA7vQeE_0O-26">
          <mxGeometry y="30" width="140" height="30" as="geometry" />
        </mxCell>
        <mxCell id="CvcMk5rBtzCA7vQeE_0O-28" value="Nombre_tratamiento" style="text;strokeColor=none;fillColor=none;align=left;verticalAlign=middle;spacingLeft=4;spacingRight=4;overflow=hidden;points=[[0,0.5],[1,0.5]];portConstraint=eastwest;rotatable=0;" vertex="1" parent="CvcMk5rBtzCA7vQeE_0O-26">
          <mxGeometry y="60" width="140" height="30" as="geometry" />
        </mxCell>
        <mxCell id="CvcMk5rBtzCA7vQeE_0O-29" value="Visita" style="swimlane;fontStyle=0;childLayout=stackLayout;horizontal=1;startSize=30;horizontalStack=0;resizeParent=1;resizeParentMax=0;resizeLast=0;collapsible=1;marginBottom=0;" vertex="1" parent="1">
          <mxGeometry x="540" y="370" width="140" height="90" as="geometry" />
        </mxCell>
        <mxCell id="CvcMk5rBtzCA7vQeE_0O-30" value="Id_visita" style="text;strokeColor=none;fillColor=none;align=left;verticalAlign=middle;spacingLeft=4;spacingRight=4;overflow=hidden;points=[[0,0.5],[1,0.5]];portConstraint=eastwest;rotatable=0;" vertex="1" parent="CvcMk5rBtzCA7vQeE_0O-29">
          <mxGeometry y="30" width="140" height="30" as="geometry" />
        </mxCell>
        <mxCell id="CvcMk5rBtzCA7vQeE_0O-31" value="Fecha_visita" style="text;strokeColor=none;fillColor=none;align=left;verticalAlign=middle;spacingLeft=4;spacingRight=4;overflow=hidden;points=[[0,0.5],[1,0.5]];portConstraint=eastwest;rotatable=0;" vertex="1" parent="CvcMk5rBtzCA7vQeE_0O-29">
          <mxGeometry y="60" width="140" height="30" as="geometry" />
        </mxCell>
        <mxCell id="CvcMk5rBtzCA7vQeE_0O-51" value="" style="edgeStyle=orthogonalEdgeStyle;rounded=0;orthogonalLoop=1;jettySize=auto;html=1;" edge="1" parent="1" source="CvcMk5rBtzCA7vQeE_0O-32" target="CvcMk5rBtzCA7vQeE_0O-31">
          <mxGeometry relative="1" as="geometry" />
        </mxCell>
        <mxCell id="CvcMk5rBtzCA7vQeE_0O-32" value="Programa" style="swimlane;fontStyle=0;childLayout=stackLayout;horizontal=1;startSize=30;horizontalStack=0;resizeParent=1;resizeParentMax=0;resizeLast=0;collapsible=1;marginBottom=0;" vertex="1" parent="1">
          <mxGeometry x="710" y="370" width="140" height="90" as="geometry" />
        </mxCell>
        <mxCell id="CvcMk5rBtzCA7vQeE_0O-33" value="Id_programa" style="text;strokeColor=none;fillColor=none;align=left;verticalAlign=middle;spacingLeft=4;spacingRight=4;overflow=hidden;points=[[0,0.5],[1,0.5]];portConstraint=eastwest;rotatable=0;" vertex="1" parent="CvcMk5rBtzCA7vQeE_0O-32">
          <mxGeometry y="30" width="140" height="30" as="geometry" />
        </mxCell>
        <mxCell id="CvcMk5rBtzCA7vQeE_0O-34" value="nombre_programa" style="text;strokeColor=none;fillColor=none;align=left;verticalAlign=middle;spacingLeft=4;spacingRight=4;overflow=hidden;points=[[0,0.5],[1,0.5]];portConstraint=eastwest;rotatable=0;" vertex="1" parent="CvcMk5rBtzCA7vQeE_0O-32">
          <mxGeometry y="60" width="140" height="30" as="geometry" />
        </mxCell>
        <mxCell id="CvcMk5rBtzCA7vQeE_0O-35" value="Pais" style="swimlane;fontStyle=0;childLayout=stackLayout;horizontal=1;startSize=30;horizontalStack=0;resizeParent=1;resizeParentMax=0;resizeLast=0;collapsible=1;marginBottom=0;" vertex="1" parent="1">
          <mxGeometry x="380" y="370" width="140" height="90" as="geometry" />
        </mxCell>
        <mxCell id="CvcMk5rBtzCA7vQeE_0O-36" value="id_pais" style="text;strokeColor=none;fillColor=none;align=left;verticalAlign=middle;spacingLeft=4;spacingRight=4;overflow=hidden;points=[[0,0.5],[1,0.5]];portConstraint=eastwest;rotatable=0;" vertex="1" parent="CvcMk5rBtzCA7vQeE_0O-35">
          <mxGeometry y="30" width="140" height="30" as="geometry" />
        </mxCell>
        <mxCell id="CvcMk5rBtzCA7vQeE_0O-37" value="Nombre_pais" style="text;strokeColor=none;fillColor=none;align=left;verticalAlign=middle;spacingLeft=4;spacingRight=4;overflow=hidden;points=[[0,0.5],[1,0.5]];portConstraint=eastwest;rotatable=0;" vertex="1" parent="CvcMk5rBtzCA7vQeE_0O-35">
          <mxGeometry y="60" width="140" height="30" as="geometry" />
        </mxCell>
        <mxCell id="CvcMk5rBtzCA7vQeE_0O-50" value="" style="curved=1;endArrow=classic;html=1;rounded=0;entryX=0.5;entryY=0;entryDx=0;entryDy=0;exitX=0.457;exitY=-0.033;exitDx=0;exitDy=0;exitPerimeter=0;" edge="1" parent="1" source="CvcMk5rBtzCA7vQeE_0O-19" target="CvcMk5rBtzCA7vQeE_0O-1">
          <mxGeometry width="50" height="50" relative="1" as="geometry">
            <mxPoint x="510" y="140" as="sourcePoint" />
            <mxPoint x="560" y="90" as="targetPoint" />
            <Array as="points">
              <mxPoint x="610" y="-10" />
              <mxPoint x="300" y="-40" />
            </Array>
          </mxGeometry>
        </mxCell>
      </root>
    </mxGraphModel>
  </diagram>
</mxfile>
